<svg width="897" height="840" viewBox="0 0 897 840" fill="none" xmlns="http://www.w3.org/2000/svg">
<path d="M3 403H130.585L179.822 594.664L228.843 403H356V718H276.794V477.775L215.357 718H143.644L82.4197 477.775V718H3V403Z" fill="#006B72"/>
<path d="M426.472 617.715C418.512 613.521 412.707 608.834 409.059 603.654C404.084 596.582 401.597 588.44 401.597 579.23C401.597 564.099 408.769 551.722 423.113 542.101C434.307 534.7 449.107 531 467.515 531C491.893 531 509.885 535.605 521.494 544.815C533.184 554.025 539.03 565.62 539.03 579.6C539.03 587.741 536.708 595.348 532.065 602.42C528.583 607.683 523.11 612.781 515.648 617.715C525.515 622.403 532.853 628.611 537.662 636.342C542.554 644.071 545 652.624 545 661.998C545 671.044 542.886 679.514 538.657 687.409C534.511 695.221 529.37 701.265 523.234 705.541C517.181 709.818 509.595 712.942 500.474 714.916C491.436 716.972 481.776 718 471.495 718C452.175 718 437.416 715.738 427.218 711.216C417.019 706.692 409.267 700.032 403.96 691.233C398.653 682.433 396 672.606 396 661.752C396 651.143 398.488 642.18 403.463 634.861C408.438 627.46 416.107 621.745 426.472 617.715ZM449.232 582.191C449.232 588.44 451.181 593.498 455.078 597.363C459.057 601.145 464.323 603.037 470.873 603.037C476.677 603.037 481.445 601.145 485.176 597.363C488.907 593.58 490.773 588.687 490.773 582.684C490.773 576.434 488.825 571.376 484.927 567.511C481.03 563.564 476.055 561.591 470.002 561.591C463.867 561.591 458.85 563.523 454.953 567.388C451.139 571.171 449.232 576.105 449.232 582.191ZM446.496 660.025C446.496 668.001 448.942 674.539 453.834 679.638C458.726 684.654 464.323 687.162 470.624 687.162C476.677 687.162 482.108 684.613 486.918 679.514C491.726 674.333 494.131 667.796 494.131 659.901C494.131 651.925 491.685 645.387 486.793 640.289C481.984 635.19 476.387 632.641 470.002 632.641C463.701 632.641 458.187 635.108 453.461 640.042C448.817 644.976 446.496 651.637 446.496 660.025Z" fill="#006B72"/>
<path d="M409 488H734.264H883L409 13V488Z" fill="#006B72"/>
<path d="M356 354H113.767H3L356 0V354Z" fill="#006B72"/>
<path fill-rule="evenodd" clip-rule="evenodd" d="M896.5 839.5H0.5V772.5H896.5V839.5Z" fill="#006B72"/>
<path d="M710.762 714H561.592C563.301 699.27 568.468 685.436 577.095 672.496C585.802 659.475 602.078 644.135 625.923 626.476C640.49 615.652 649.808 607.433 653.877 601.817C657.946 596.202 659.98 590.872 659.98 585.826C659.98 580.374 657.946 575.735 653.877 571.91C649.889 568.004 644.844 566.051 638.74 566.051C632.393 566.051 627.184 568.045 623.115 572.032C619.128 576.02 616.442 583.059 615.059 593.15L565.254 589.122C567.207 575.125 570.788 564.22 575.996 556.407C581.204 548.513 588.529 542.491 597.969 538.341C607.49 534.109 620.633 531.993 637.397 531.993C654.894 531.993 668.485 533.987 678.169 537.975C687.935 541.962 695.584 548.106 701.118 556.407C706.733 564.627 709.541 573.863 709.541 584.117C709.541 595.022 706.326 605.439 699.897 615.367C693.55 625.296 681.953 636.201 665.107 648.082C655.098 654.999 648.384 659.841 644.966 662.608C641.629 665.375 637.682 668.997 633.125 673.473H710.762V714ZM781.47 586.803L734.473 578.38C738.379 563.406 745.866 551.931 756.934 543.956C768.083 535.981 783.83 531.993 804.175 531.993C827.531 531.993 844.417 536.347 854.834 545.055C865.251 553.762 870.459 564.708 870.459 577.892C870.459 585.623 868.343 592.621 864.111 598.888C859.88 605.154 853.491 610.647 844.946 615.367C851.864 617.076 857.153 619.07 860.815 621.349C866.756 625.011 871.354 629.853 874.609 635.875C877.946 641.816 879.614 648.937 879.614 657.237C879.614 667.654 876.888 677.664 871.436 687.267C865.983 696.788 858.13 704.153 847.876 709.361C837.622 714.488 824.154 717.052 807.471 717.052C791.195 717.052 778.337 715.139 768.896 711.314C759.538 707.49 751.807 701.915 745.703 694.591C739.681 687.185 735.042 677.908 731.787 666.759L781.47 660.167C783.423 670.177 786.434 677.135 790.503 681.041C794.653 684.866 799.902 686.778 806.25 686.778C812.923 686.778 818.457 684.337 822.852 679.454C827.327 674.571 829.565 668.061 829.565 659.923C829.565 651.622 827.409 645.193 823.096 640.636C818.864 636.078 813.086 633.8 805.762 633.8C801.855 633.8 796.484 634.776 789.648 636.729L792.212 601.207C794.979 601.614 797.135 601.817 798.682 601.817C805.192 601.817 810.604 599.742 814.917 595.592C819.312 591.441 821.509 586.518 821.509 580.821C821.509 575.369 819.881 571.015 816.626 567.76C813.371 564.505 808.895 562.877 803.198 562.877C797.339 562.877 792.578 564.667 788.916 568.248C785.254 571.747 782.772 577.932 781.47 586.803Z" fill="#006B72"/>
</svg>
